<?xml version="1.0" standalone="no"?>
<!DOCTYPE svg PUBLIC "-//W3C//DTD SVG 20010904//EN"
 "http://www.w3.org/TR/2001/REC-SVG-20010904/DTD/svg10.dtd">
<svg version="1.0" xmlns="http://www.w3.org/2000/svg"
 width="1920.000000pt" height="1920.000000pt" viewBox="0 0 1920.000000 1920.000000"
 preserveAspectRatio="xMidYMid meet">

<g transform="translate(0.000000,1920.000000) scale(0.100000,-0.100000)"
fill="#000000" stroke="none">
<path d="M4420 13663 c-363 -212 -1306 -765 -1742 -1022 l-198 -116 0 -1336 0
-1337 238 -140 c130 -77 498 -294 817 -482 319 -188 624 -369 677 -401 53 -32
98 -59 101 -59 7 0 -22 151 -103 539 -43 207 -82 393 -85 414 -8 41 11 29
-652 418 l-263 154 0 896 0 895 43 24 c23 13 321 188 662 389 341 200 682 400
757 444 l136 79 334 -188 c183 -103 367 -206 408 -229 41 -23 175 -99 297
-168 l222 -125 188 114 c103 63 263 160 356 216 92 56 167 104 167 107 0 3
-53 36 -118 72 -64 37 -187 107 -272 156 -458 265 -718 415 -1125 648 -247
142 -452 259 -455 260 -3 2 -178 -99 -390 -222z"/>
<path d="M8488 12569 c-286 -20 -479 -161 -533 -390 -22 -95 -23 -1836 0
-1922 50 -194 183 -314 400 -363 106 -24 377 -25 482 -2 169 38 298 130 362
256 55 109 61 156 61 485 l0 297 -214 0 -215 0 -3 -257 c-3 -248 -4 -260 -27
-306 -15 -30 -38 -58 -64 -75 -37 -25 -49 -27 -137 -27 -89 0 -100 2 -139 28
-28 19 -50 44 -64 75 -22 47 -22 52 -25 826 -2 559 1 796 9 835 26 126 159
190 306 146 68 -20 117 -74 132 -144 6 -29 11 -147 11 -266 l0 -215 215 0 215
0 0 283 c0 307 -7 363 -56 459 -34 67 -121 158 -184 192 -132 72 -310 100
-532 85z"/>
<path d="M9690 11220 l0 -1320 220 0 220 0 0 575 0 575 260 0 260 0 0 -575 0
-575 220 0 220 0 0 1320 0 1320 -220 0 -220 0 0 -550 0 -550 -260 0 -260 0 0
550 0 550 -220 0 -220 0 0 -1320z"/>
<path d="M11540 11220 l0 -1320 590 0 590 0 0 195 0 195 -370 0 -370 0 0 380
0 380 305 0 305 0 0 190 0 190 -305 0 -305 0 0 360 0 360 365 0 365 0 0 195 0
195 -585 0 -585 0 0 -1320z"/>
<path d="M12972 12348 l3 -193 150 -1 c83 0 183 -1 223 -2 l72 -2 0 -1125 0
-1125 215 0 215 0 0 1125 0 1125 223 2 222 3 3 193 2 192 -665 0 -665 0 2
-192z"/>
<path d="M14582 11223 l3 -1318 198 -3 197 -2 0 852 0 853 249 -745 c137 -410
266 -793 286 -852 l37 -108 209 0 209 0 0 1320 0 1320 -206 0 -206 0 7 -797
c4 -439 4 -795 0 -791 -3 3 -125 361 -269 795 l-262 788 -227 3 -227 2 2
-1317z"/>
<path d="M16765 12528 c-8 -24 -375 -1967 -445 -2358 -22 -124 -43 -235 -45
-247 l-5 -23 209 0 209 0 6 28 c9 41 74 419 83 482 l8 55 240 0 240 0 47 -280
c26 -154 47 -281 48 -282 0 -2 97 -3 215 -3 202 0 215 1 215 18 0 23 -65 381
-245 1347 -42 226 -105 568 -141 760 -36 193 -72 387 -81 433 l-15 82 -269 0
c-207 0 -271 -3 -274 -12z m350 -1109 c47 -294 88 -546 91 -561 l6 -28 -186 0
-185 0 5 28 c13 73 166 1013 171 1055 3 26 8 46 10 44 2 -2 42 -244 88 -538z"/>
<path d="M4770 12454 c0 -188 -46 -279 -290 -567 -58 -69 -120 -150 -139 -182
-116 -193 -126 -396 -30 -587 46 -92 154 -198 252 -249 53 -27 76 -35 66 -23
-28 32 -69 121 -85 186 -23 88 -13 164 32 258 31 63 56 94 158 195 154 152
188 194 230 286 58 126 69 230 41 364 -25 120 -122 293 -209 374 l-26 24 0
-79z"/>
<path d="M5157 11852 c-11 -154 -72 -260 -253 -435 -153 -149 -187 -206 -193
-330 -4 -89 13 -153 61 -234 l31 -52 56 29 c31 16 99 49 151 73 52 25 120 65
150 89 66 54 142 160 172 243 30 84 36 229 13 332 -19 89 -97 258 -148 320
l-34 42 -6 -77z"/>
<path d="M3990 10616 c12 -10 190 -152 329 -260 9 -7 167 -11 483 -12 l470 -1
147 114 c80 63 159 128 176 144 l30 29 -825 0 c-699 0 -822 -2 -810 -14z"/>
<path d="M4354 10148 c4 -35 18 -191 32 -348 13 -157 47 -508 74 -781 28 -273
50 -512 50 -532 0 -26 29 -95 105 -244 57 -115 109 -215 115 -223 6 -10 10
348 10 1088 l0 1102 -196 0 -196 0 6 -62z"/>
<path d="M4867 10203 c-4 -3 -7 -502 -7 -1107 l1 -1101 113 223 114 223 17
182 c9 100 45 482 81 848 35 367 64 683 64 703 l0 36 -188 0 c-104 0 -192 -3
-195 -7z"/>
<path d="M6000 10082 c-85 -54 -235 -149 -332 -211 -123 -78 -180 -119 -183
-134 -14 -59 -156 -746 -175 -845 -12 -62 -20 -116 -18 -121 2 -5 179 96 393
226 961 579 1235 746 1235 753 0 9 -737 430 -753 430 -7 0 -82 -44 -167 -98z"/>
<path d="M2312 9096 l3 -546 220 -89 c311 -125 364 -147 647 -275 618 -278
1121 -532 1443 -726 135 -82 130 -87 86 95 -79 324 -244 648 -444 875 -116
132 -144 155 -288 239 -74 42 -224 131 -334 195 -110 65 -303 179 -430 254
-126 74 -300 176 -385 227 -207 123 -485 284 -505 291 -14 6 -15 -48 -13 -540z"/>
<path d="M1862 8888 l3 -693 50 -11 c59 -13 458 -124 850 -236 154 -44 325
-93 380 -108 193 -53 689 -200 954 -281 52 -16 96 -28 97 -26 2 1 -38 21 -89
44 -51 23 -204 94 -342 158 -365 170 -723 328 -1015 448 -84 34 -463 176 -570
213 l-55 19 -3 496 -2 496 -130 87 -130 86 2 -692z"/>
<path d="M7035 9487 l-120 -82 -3 -510 -2 -510 -213 -107 c-116 -59 -288 -148
-382 -199 -257 -139 -972 -550 -955 -549 7 1 95 33 395 145 143 54 319 119
390 145 72 27 209 78 305 113 96 36 297 110 445 164 l270 100 3 686 c1 378 -1
687 -5 686 -5 0 -62 -37 -128 -82z"/>
<path d="M9776 9364 c-329 -80 -489 -464 -324 -776 60 -113 198 -217 335 -253
168 -44 378 1 497 106 l47 42 -53 54 c-76 78 -81 79 -126 44 -153 -123 -383
-98 -494 52 -57 79 -72 123 -72 222 0 77 4 98 27 146 31 65 109 142 170 169
109 48 241 34 345 -37 l65 -45 66 67 66 66 -40 36 c-53 46 -140 90 -217 108
-78 18 -214 18 -292 -1z"/>
<path d="M8440 9362 l-106 -3 -142 -357 c-78 -196 -168 -426 -201 -509 l-59
-153 103 0 103 0 37 95 37 95 233 0 232 0 36 -92 35 -93 105 -3 105 -3 -28 73
c-163 430 -363 933 -374 943 -6 6 -56 9 -116 7z m26 -279 c41 -99 145 -376
141 -379 -2 -3 -77 -7 -166 -11 -138 -5 -161 -4 -161 9 0 24 155 418 165 418
3 0 12 -17 21 -37z"/>
<path d="M12453 9363 l-83 -4 -2 -102 c-3 -164 -3 -253 0 -594 l2 -323 240 0
c262 0 314 7 404 52 168 85 265 254 266 462 0 240 -142 431 -366 491 -62 17
-304 26 -461 18z m439 -201 c118 -53 192 -169 192 -302 0 -91 -14 -143 -57
-206 -71 -106 -173 -147 -354 -142 l-108 3 -3 325 c-1 179 0 331 3 339 4 11
32 12 143 9 111 -4 146 -9 184 -26z"/>
<path d="M13968 9363 l-118 -4 0 -509 0 -510 365 0 365 0 0 85 0 85 -267 2
-268 3 -3 133 -3 132 231 0 230 0 0 80 0 80 -227 2 -228 3 0 120 0 120 263 3
262 2 0 88 0 87 -243 1 c-133 0 -295 -1 -359 -3z"/>
<path d="M15190 8853 l0 -513 95 0 95 0 2 343 3 342 155 -307 155 -308 51 0
52 0 48 98 c152 302 256 502 262 502 4 0 6 -151 4 -335 l-3 -335 101 0 100 0
0 510 0 510 -113 0 -113 0 -164 -334 c-91 -184 -169 -334 -174 -332 -6 1 -81
151 -169 332 -87 181 -161 331 -164 334 -2 3 -54 5 -114 5 l-109 0 0 -512z"/>
<path d="M16840 9363 c0 -3 198 -331 286 -474 l84 -135 0 -207 0 -207 100 0
100 0 0 205 0 206 78 127 c43 70 127 206 185 302 l107 175 -32 8 c-18 5 -66 7
-106 5 -62 -3 -76 -7 -90 -26 -9 -12 -66 -108 -126 -212 -61 -105 -113 -190
-116 -190 -3 0 -34 48 -67 108 -34 59 -88 154 -122 212 l-60 105 -111 0 c-60
0 -110 -1 -110 -2z"/>
<path d="M11062 9008 c-77 -194 -163 -414 -192 -488 -28 -74 -55 -145 -60
-157 -10 -23 -10 -23 94 -23 l105 0 20 58 c12 31 29 74 38 95 l16 37 232 0
233 0 34 -92 34 -93 106 -3 106 -3 -18 48 c-25 66 -248 635 -322 821 l-61 152
-112 0 -113 0 -140 -352z m339 -97 c43 -112 76 -207 73 -212 -7 -12 -311 -12
-319 0 -9 16 144 423 158 418 5 -1 44 -94 88 -206z"/>
<path d="M6695 9301 c-16 -10 -259 -155 -540 -321 -335 -200 -541 -328 -601
-376 -318 -255 -554 -619 -654 -1009 -15 -60 -31 -132 -36 -159 l-7 -50 64 45
c107 76 483 319 689 445 358 220 1008 587 1090 615 l30 11 0 409 c0 225 -1
409 -2 409 -2 0 -16 -9 -33 -19z"/>
<path d="M4647 7086 c-52 -19 -85 -52 -93 -93 -15 -78 22 -122 127 -154 87
-26 111 -43 107 -78 -6 -56 -98 -65 -157 -16 -36 31 -42 31 -71 0 -23 -24 -23
-25 -4 -46 77 -85 252 -82 305 5 45 73 13 152 -76 185 -30 12 -61 21 -68 21
-7 0 -27 9 -44 20 -39 24 -45 63 -12 81 31 16 97 5 125 -22 l25 -23 27 27 c32
32 25 51 -29 79 -49 25 -116 31 -162 14z"/>
<path d="M6869 7085 c-66 -29 -87 -100 -48 -164 l20 -34 -35 -29 c-50 -41 -65
-94 -40 -144 11 -21 34 -47 52 -58 47 -27 129 -25 178 3 l37 22 22 -21 c15
-14 35 -20 69 -20 l49 0 -42 45 c-23 26 -41 49 -39 53 22 42 48 107 48 118 0
10 -12 14 -40 14 -31 0 -40 -4 -40 -17 -1 -10 -7 -29 -14 -41 l-13 -24 -35 42
-35 43 37 33 c43 39 54 76 35 121 -25 59 -100 86 -166 58z m91 -70 c18 -21 4
-64 -25 -77 -21 -10 -28 -8 -40 8 -8 10 -15 29 -15 41 0 37 56 57 80 28z m-20
-231 c43 -44 44 -46 26 -60 -27 -19 -85 -18 -108 3 -22 20 -23 61 -1 85 24 26
34 23 83 -28z"/>
<path d="M8073 7086 c-84 -27 -133 -81 -153 -170 -14 -64 2 -141 40 -194 78
-108 266 -114 354 -11 107 126 54 329 -98 374 -59 18 -87 18 -143 1z m145 -92
c83 -53 81 -204 -2 -255 -39 -24 -109 -25 -147 -2 -34 20 -69 86 -69 129 0 16
9 48 20 72 33 73 129 100 198 56z"/>
<path d="M11318 7088 c-49 -13 -116 -72 -139 -122 -23 -51 -25 -143 -3 -194
35 -84 112 -133 208 -134 106 0 194 63 222 160 54 183 -102 340 -288 290z
m130 -88 c34 -15 47 -29 63 -66 30 -67 20 -126 -31 -176 -33 -33 -44 -38 -84
-38 -91 0 -146 54 -146 143 0 74 36 129 96 147 43 13 55 11 102 -10z"/>
<path d="M13377 7086 c-50 -18 -74 -41 -87 -82 -25 -76 16 -133 119 -164 112
-34 135 -56 105 -99 -29 -41 -111 -36 -161 11 -23 21 -46 16 -73 -17 -11 -13
-10 -19 6 -36 66 -73 215 -83 286 -20 25 22 32 37 36 79 7 81 -32 121 -148
152 -63 16 -90 36 -90 65 0 50 88 62 139 19 l31 -26 29 24 c17 13 30 26 30 30
1 12 -62 55 -98 67 -44 14 -77 13 -124 -3z"/>
<path d="M4980 7050 l0 -40 65 0 65 0 0 -186 0 -185 41 3 40 3 2 180 2 180 68
3 67 3 0 39 0 40 -175 0 -175 0 0 -40z"/>
<path d="M5450 6865 l0 -225 155 0 155 0 0 40 0 40 -110 0 -110 0 0 55 0 55
95 0 95 0 0 40 0 40 -95 0 -95 0 0 50 0 49 108 3 107 3 3 38 3 37 -155 0 -156
0 0 -225z"/>
<path d="M5900 6865 l0 -225 45 0 44 0 3 143 3 142 60 -133 c58 -129 60 -133
89 -130 27 3 33 12 83 123 30 66 59 124 64 130 5 5 9 -49 9 -134 l0 -142 43 3
42 3 0 220 0 220 -51 3 -50 3 -58 -128 c-89 -199 -78 -189 -116 -108 -17 39
-47 107 -67 153 l-35 82 -54 0 -54 0 0 -225z"/>
<path d="M7520 6865 l0 -225 45 0 45 0 0 90 0 90 90 0 90 0 0 40 0 40 -90 0
-90 0 0 55 0 55 105 0 105 0 0 40 0 40 -150 0 -150 0 0 -225z"/>
<path d="M8490 6948 c0 -168 10 -210 59 -259 62 -62 178 -71 252 -19 56 41 69
89 69 263 l0 157 -40 0 -40 0 0 -135 c0 -188 -22 -235 -111 -235 -81 0 -99 42
-99 230 l0 140 -45 0 -45 0 0 -142z"/>
<path d="M9020 6864 l0 -225 43 3 42 3 5 147 5 146 104 -149 104 -149 44 0 43
0 0 225 0 225 -45 0 -45 0 0 -146 c0 -80 -4 -143 -9 -140 -4 3 -52 69 -105
146 l-98 140 -44 0 -44 0 0 -226z"/>
<path d="M9566 6999 c-4 -51 -4 -152 0 -226 l7 -135 117 3 c109 4 120 6 166
34 147 91 135 319 -20 391 -44 20 -66 24 -157 24 l-106 0 -7 -91z m229 -3 c97
-41 101 -207 5 -258 -22 -11 -56 -18 -92 -18 l-58 0 0 145 0 145 55 0 c31 0
71 -6 90 -14z"/>
<path d="M10187 7073 c-4 -14 -132 -341 -164 -421 -4 -10 6 -12 42 -10 47 3
49 4 64 46 l15 42 97 0 97 0 14 -42 c14 -42 16 -43 61 -46 l47 -3 -29 78 c-22
61 -92 243 -138 361 -3 7 -24 12 -53 12 -37 0 -49 -4 -53 -17z m116 -265 c-5
-10 -59 -10 -101 -2 l-30 6 25 62 c14 33 30 72 35 86 9 23 13 18 43 -60 18
-47 31 -88 28 -92z"/>
<path d="M10480 7050 l0 -40 65 0 65 0 0 -185 0 -185 45 0 45 0 0 185 0 185
65 0 65 0 0 40 0 40 -175 0 -175 0 0 -40z"/>
<path d="M10940 6865 l0 -225 45 0 45 0 0 225 0 225 -45 0 -45 0 0 -225z"/>
<path d="M11740 6865 l0 -225 45 0 45 0 0 151 0 152 53 -74 c29 -41 77 -109
105 -151 52 -78 53 -78 97 -78 l45 0 0 225 0 225 -45 0 -45 0 0 -146 c0 -80
-4 -143 -8 -140 -4 2 -52 68 -106 145 l-98 141 -44 0 -44 0 0 -225z"/>
<path d="M12520 6865 l0 -225 45 0 45 0 0 225 0 225 -45 0 -45 0 0 -225z"/>
<path d="M12760 6864 l0 -225 43 3 42 3 5 146 5 147 104 -149 104 -149 43 0
44 0 0 225 0 225 -45 0 -45 0 0 -151 0 -152 -53 74 c-29 41 -77 109 -105 152
-52 77 -53 77 -97 77 l-45 0 0 -226z"/>
<path d="M13700 7050 l0 -40 65 0 65 0 0 -185 0 -185 45 0 45 0 0 185 0 185
65 0 65 0 0 40 0 40 -175 0 -175 0 0 -40z"/>
<path d="M14160 6865 l0 -225 45 0 45 0 0 225 0 225 -45 0 -45 0 0 -225z"/>
<path d="M14370 7050 l0 -40 65 0 65 0 0 -185 0 -185 45 0 45 0 0 185 0 185
65 0 65 0 0 40 0 40 -175 0 -175 0 0 -40z"/>
<path d="M14840 6930 c0 -138 3 -166 19 -198 35 -69 81 -94 172 -94 64 0 105
18 142 62 39 45 47 90 47 248 l0 142 -44 0 -45 0 -3 -161 -3 -161 -28 -24
c-45 -39 -126 -29 -157 19 -10 16 -15 66 -18 175 l-4 152 -39 0 -39 0 0 -160z"/>
<path d="M15330 7050 l0 -40 65 0 65 0 0 -185 0 -185 40 0 40 0 0 185 0 185
65 0 65 0 0 40 0 40 -170 0 -170 0 0 -40z"/>
<path d="M15780 6865 l0 -225 155 0 155 0 0 40 0 40 -110 0 -110 0 0 55 0 55
95 0 95 0 0 40 0 40 -95 0 -95 0 0 50 0 50 110 0 110 0 0 40 0 40 -155 0 -155
0 0 -225z"/>
<path d="M1860 6901 c0 -5 -3 -16 -6 -25 -6 -15 101 -16 1165 -16 l1171 0 0
25 0 25 -1165 0 c-701 0 -1165 -4 -1165 -9z"/>
<path d="M16440 6885 l0 -25 663 0 663 0 2 25 2 25 -665 0 -665 0 0 -25z"/>
<path d="M9210 5880 c0 -223 1 -230 20 -230 19 0 20 7 20 230 0 223 -1 230
-20 230 -19 0 -20 -7 -20 -230z"/>
<path d="M11580 5880 l0 -230 24 0 23 0 -2 198 c-2 108 -4 212 -4 230 -1 25
-5 32 -21 32 -19 0 -20 -7 -20 -230z"/>
<path d="M14370 5879 l0 -230 23 3 c22 3 22 4 25 198 4 225 0 260 -28 260 -19
0 -20 -8 -20 -231z"/>
<path d="M3955 6075 c-113 -40 -156 -179 -90 -292 46 -78 161 -106 253 -62 54
27 63 46 31 70 -23 17 -25 17 -47 -4 -18 -17 -36 -22 -78 -22 -47 0 -58 4 -85
32 -43 42 -51 120 -19 171 38 62 125 77 183 32 24 -19 24 -19 46 4 21 22 21
23 2 40 -25 23 -88 45 -126 45 -16 0 -48 -6 -70 -14z"/>
<path d="M5283 6079 c-60 -17 -92 -94 -63 -150 13 -22 71 -54 120 -64 47 -9
80 -32 80 -54 0 -53 -96 -70 -149 -26 -26 23 -33 24 -50 13 -27 -16 -26 -29 2
-56 65 -61 195 -56 241 10 9 12 16 41 16 64 0 55 -33 84 -129 113 -81 25 -100
51 -61 83 29 24 67 23 109 -3 32 -19 34 -19 52 -3 19 17 19 18 -3 41 -35 38
-101 51 -165 32z"/>
<path d="M5723 6083 c-13 -2 -36 -18 -53 -34 -23 -24 -30 -39 -30 -70 0 -53
31 -83 106 -104 78 -22 104 -40 104 -70 0 -28 -26 -45 -70 -45 -34 0 -90 25
-90 40 0 17 -26 11 -45 -10 -17 -19 -17 -21 -1 -39 45 -50 146 -66 213 -34 44
21 68 68 59 116 -8 45 -40 69 -125 94 -40 11 -69 27 -78 40 -13 19 -12 24 7
43 18 18 30 21 62 17 22 -3 48 -13 59 -22 17 -17 20 -17 44 -1 23 15 24 20 13
33 -32 39 -109 59 -175 46z"/>
<path d="M6585 6076 c-41 -18 -65 -47 -71 -88 -8 -49 28 -90 103 -113 94 -29
103 -35 103 -66 0 -54 -86 -68 -139 -23 -30 25 -32 25 -56 10 -21 -14 -24 -20
-15 -36 16 -30 83 -60 136 -60 86 0 144 47 144 118 0 47 -34 79 -106 101 -35
11 -73 25 -84 31 -50 27 1 88 64 76 19 -4 39 -13 46 -21 17 -20 33 -19 54 3
15 18 15 20 -2 35 -25 23 -87 47 -119 47 -15 -1 -41 -7 -58 -14z"/>
<path d="M8420 6074 c-32 -14 -69 -49 -70 -66 0 -4 9 -12 20 -18 17 -9 26 -7
51 14 55 46 119 25 119 -40 0 -24 -17 -46 -96 -122 -73 -70 -95 -98 -92 -115
3 -21 7 -22 129 -25 l127 -3 4 30 c4 30 4 30 -59 37 -34 3 -69 4 -78 0 -27
-10 -16 7 54 79 99 102 105 166 22 222 -39 26 -81 29 -131 7z"/>
<path d="M4322 5893 l3 -188 123 -3 122 -3 0 30 0 29 -90 7 -90 7 0 154 0 154
-35 0 -35 0 2 -187z"/>
<path d="M4840 6058 c-49 -115 -136 -345 -133 -350 2 -5 17 -8 33 -8 23 0 30
7 44 40 l16 40 85 0 86 0 15 -35 c17 -40 31 -49 61 -38 19 8 17 15 -51 190
l-71 183 -38 0 c-29 0 -40 -5 -47 -22z m74 -127 c36 -90 36 -91 -29 -91 -30 0
-55 3 -55 8 0 9 54 152 56 149 1 -1 14 -31 28 -66z"/>
<path d="M6087 6068 c-10 -28 -8 -356 3 -363 6 -3 67 -3 136 1 l125 7 -3 26
c-3 26 -3 26 -98 26 l-95 0 -3 53 -3 52 85 0 86 0 0 30 0 30 -85 0 -85 0 0 45
0 44 98 3 97 3 3 28 3 27 -129 0 c-95 0 -131 -3 -135 -12z"/>
<path d="M7206 6013 c-4 -38 -8 -83 -11 -100 -3 -28 0 -34 21 -39 14 -4 36 -1
49 6 58 31 125 1 125 -56 0 -61 -94 -88 -139 -40 -22 23 -25 24 -47 9 -19 -12
-22 -19 -13 -35 28 -52 128 -75 189 -43 48 25 70 62 70 117 0 41 -5 54 -28 78
-34 33 -89 47 -132 32 l-30 -11 0 45 0 44 85 0 85 0 0 30 0 30 -109 0 -109 0
-6 -67z"/>
<path d="M8051 6050 c-56 -37 -54 -35 -47 -65 l7 -26 33 20 c18 12 36 21 40
21 3 0 6 -67 6 -150 l0 -150 30 0 30 0 0 190 0 190 -27 -1 c-16 0 -48 -13 -72
-29z"/>
<path d="M10020 5937 c0 -127 -2 -146 -18 -160 -25 -23 -68 -21 -93 4 -19 19
-22 19 -45 4 -20 -13 -23 -19 -13 -36 23 -44 111 -61 175 -34 53 22 64 59 64
225 l0 140 -35 0 -35 0 0 -143z"/>
<path d="M10272 5893 l3 -188 130 0 130 0 3 33 3 32 -100 0 -101 0 0 50 0 50
85 0 85 0 0 30 0 30 -85 0 -85 0 0 45 0 44 96 3 97 3 3 28 3 27 -135 0 -134 0
2 -187z"/>
<path d="M10720 5891 l0 -189 130 -1 130 -2 0 36 0 36 -97 -3 -98 -3 -3 53 -3
52 85 0 86 0 0 30 0 30 -85 0 -85 0 0 45 0 44 98 3 97 3 3 28 3 27 -130 0
-131 0 0 -189z"/>
<path d="M12240 5890 l0 -190 30 0 30 0 0 130 c0 72 4 130 8 130 5 0 47 -56
95 -124 84 -120 117 -149 147 -131 6 4 10 84 10 191 l0 184 -30 0 -30 0 0
-131 c0 -71 -4 -128 -9 -125 -5 3 -48 62 -96 131 -82 118 -89 125 -121 125
l-34 0 0 -190z"/>
<path d="M12742 5893 l3 -188 130 0 130 0 0 30 0 30 -97 3 -98 3 0 49 0 50 86
0 85 0 -3 28 c-3 27 -4 27 -85 30 l-83 3 0 44 0 45 95 0 95 0 0 30 0 30 -130
0 -130 0 2 -187z"/>
<path d="M13172 5893 l3 -188 110 -3 c135 -3 155 1 155 32 0 21 -6 24 -61 30
-34 3 -79 6 -100 6 l-39 0 0 50 0 50 85 0 85 0 0 30 0 30 -85 0 -85 0 0 45 0
44 98 3 c96 3 97 3 97 28 l0 25 -133 3 -132 3 2 -188z"/>
<path d="M13567 6068 c-11 -35 5 -48 59 -48 l54 0 0 -160 0 -160 30 0 30 0 0
160 0 159 58 3 c54 3 57 4 60 31 l3 27 -145 0 c-106 0 -145 -3 -149 -12z"/>
<path d="M14960 5890 l0 -190 30 0 30 0 0 130 c0 72 3 130 8 130 4 -1 45 -56
92 -124 68 -99 91 -125 114 -130 15 -3 32 -4 36 -1 4 2 7 87 6 187 l-1 183
-32 3 -33 3 0 -132 0 -133 -92 132 c-87 123 -95 132 -125 132 l-33 0 0 -190z"/>
<path d="M15432 5893 l3 -188 58 -3 c124 -6 213 32 243 105 23 54 18 140 -11
189 -37 63 -88 84 -203 84 l-92 0 2 -187z m199 111 c53 -27 75 -114 44 -174
-23 -45 -53 -60 -117 -60 l-58 0 0 125 0 125 50 0 c28 0 65 -7 81 -16z"/>
<path d="M15961 6058 c-5 -13 -36 -93 -70 -179 -33 -85 -61 -161 -61 -167 0
-7 13 -12 30 -12 25 0 32 6 49 45 l20 45 79 0 79 0 18 -46 c16 -42 19 -45 49
-42 17 2 30 7 30 11 -1 4 -32 89 -70 187 l-69 180 -38 0 c-30 0 -39 -5 -46
-22z m79 -138 c16 -41 30 -76 30 -77 0 -2 -27 -3 -60 -3 -33 0 -60 3 -60 8 0
10 54 152 57 149 1 -2 16 -36 33 -77z"/>
<path d="M7640 5870 l0 -31 93 3 c91 3 92 3 92 28 0 25 -1 25 -92 28 l-93 3 0
-31z"/>
</g>
</svg>
