<?xml version="1.0" standalone="no"?>
<!DOCTYPE svg PUBLIC "-//W3C//DTD SVG 20010904//EN"
 "http://www.w3.org/TR/2001/REC-SVG-20010904/DTD/svg10.dtd">
<svg version="1.0" xmlns="http://www.w3.org/2000/svg"
 width="1248.000000pt" height="1248.000000pt" viewBox="0 0 1248.000000 1248.000000"
 preserveAspectRatio="xMidYMid meet">

<g transform="translate(0.000000,1248.000000) scale(0.100000,-0.100000)"
fill="#000000" stroke="none">
<path d="M10205 9823 c-55 -19 -327 -114 -604 -209 -278 -96 -506 -176 -508
-177 -1 -2 86 -14 195 -26 108 -13 202 -26 209 -30 7 -3 -85 -100 -230 -241
-948 -921 -1801 -1760 -2016 -1982 -435 -450 -614 -631 -1341 -1360 l-705
-708 515 0 515 0 129 138 c120 126 526 559 1306 1392 415 442 1081 1167 1874
2040 133 146 269 294 302 329 l61 64 50 -92 50 -92 25 83 c132 434 266 871
273 891 4 9 6 17 4 16 -2 0 -49 -16 -104 -36z"/>
<path d="M3639 9162 c-118 -114 -333 -322 -478 -462 l-263 -255 846 -3 846 -2
0 -1683 1 -1682 560 565 561 565 -1 721 -1 721 -178 174 c-97 96 -283 278
-413 404 -130 127 -237 233 -238 238 0 4 377 7 840 7 l841 0 302 293 c165 162
373 364 461 450 l160 156 -1816 1 -1817 0 -213 -208z"/>
<path d="M5428 8137 c48 -46 168 -160 267 -254 99 -94 371 -367 605 -606 l425
-436 322 322 321 321 -60 66 c-34 36 -190 201 -347 367 l-286 303 -667 0 -667
0 87 -83z"/>
<path d="M7701 6448 c-161 -172 -293 -316 -294 -319 -2 -5 365 -405 772 -841
l184 -198 601 0 601 0 -91 93 c-50 50 -257 270 -460 487 -403 432 -952 1019
-994 1063 l-26 28 -293 -313z"/>
<path d="M2200 4495 l0 -105 183 -2 182 -3 3 -482 2 -483 120 0 120 0 0 485 0
485 175 0 175 0 0 105 0 105 -480 0 -480 0 0 -105z"/>
<path d="M4860 4010 l0 -590 115 0 115 0 0 254 c0 156 4 266 11 283 14 38 57
83 96 99 82 35 189 1 227 -71 19 -37 21 -59 24 -302 l3 -263 114 0 115 0 0
258 c0 342 -12 406 -90 495 -99 113 -338 124 -458 22 -22 -19 -42 -35 -44 -35
-1 0 -3 98 -3 217 l0 218 -112 3 -113 3 0 -591z"/>
<path d="M5720 4493 l0 -103 180 0 180 0 0 -485 0 -485 123 0 122 0 0 483 0
482 183 3 183 2 -3 101 -3 101 -483 1 -482 2 0 -102z"/>
<path d="M8200 4495 l0 -105 115 0 115 0 0 105 0 105 -115 0 -115 0 0 -105z"/>
<path d="M9678 4408 c76 -101 179 -236 229 -302 l91 -119 -97 -121 c-54 -66
-154 -194 -224 -283 l-127 -163 124 0 123 0 154 197 c85 108 159 198 164 199
6 2 76 -87 157 -197 l148 -199 141 0 c112 0 139 3 132 13 -6 6 -107 139 -226
295 l-216 283 27 37 c15 21 106 140 202 266 96 125 183 238 193 252 l19 24
-120 0 -120 0 -34 -42 c-19 -24 -90 -115 -157 -203 -68 -88 -126 -161 -129
-162 -4 -1 -74 90 -155 203 l-149 204 -144 0 -144 0 138 -182z"/>
<path d="M3390 4260 c-266 -56 -405 -361 -285 -628 36 -81 129 -170 212 -203
50 -21 75 -24 184 -24 124 0 125 0 201 37 47 24 91 55 117 83 l42 46 -82 53
-82 53 -37 -37 c-48 -48 -94 -63 -180 -58 -59 3 -74 8 -107 34 -41 34 -69 75
-83 123 l-9 31 300 0 299 0 0 79 c0 238 -146 404 -366 416 -43 2 -99 0 -124
-5z m143 -171 c57 -16 104 -63 122 -122 8 -28 15 -52 15 -54 0 -2 -85 -3 -190
-3 -214 0 -207 -3 -171 75 23 50 58 83 108 100 47 17 67 18 116 4z"/>
<path d="M4305 4256 c-112 -30 -184 -78 -245 -164 -60 -83 -84 -172 -78 -286
11 -198 113 -333 291 -388 136 -41 304 -13 400 68 32 27 93 103 86 107 -2 2
-41 26 -86 54 l-82 51 -25 -33 c-14 -18 -45 -42 -69 -54 -130 -63 -268 26
-284 184 -19 182 92 301 252 271 25 -5 51 -22 82 -54 l45 -46 82 44 c44 24 83
44 85 46 10 8 -66 107 -102 134 -90 66 -244 95 -352 66z"/>
<path d="M7080 4256 c-61 -16 -112 -48 -149 -94 l-30 -37 -1 63 0 62 -110 0
-110 0 0 -415 0 -415 115 0 115 0 0 231 c0 149 4 246 12 271 25 83 143 149
239 134 l39 -6 0 104 c0 126 -8 133 -120 102z"/>
<path d="M7552 4259 c-73 -14 -160 -59 -201 -104 -36 -39 -77 -103 -69 -109 2
-2 43 -15 92 -30 l89 -27 29 35 c41 50 81 68 148 69 93 1 152 -46 165 -130 l7
-43 -65 0 c-111 0 -266 -20 -325 -42 -151 -56 -210 -202 -141 -345 69 -143
336 -181 484 -68 l45 35 0 -40 0 -40 111 0 110 0 -3 308 c-3 296 -4 309 -26
358 -13 28 -38 65 -55 82 -86 82 -249 120 -395 91z m253 -536 c-9 -64 -39
-109 -86 -133 -113 -58 -239 -21 -239 71 0 79 60 108 224 109 l108 0 -7 -47z"/>
<path d="M8989 4256 c-56 -15 -135 -60 -152 -87 -19 -31 -27 -22 -27 31 l0 50
-110 0 -110 0 0 -415 0 -415 114 0 114 0 1 258 c2 245 3 259 24 301 32 64 91
94 172 89 74 -4 119 -33 146 -92 17 -37 19 -69 19 -298 l0 -258 116 0 116 0
-4 303 -3 302 -29 63 c-66 142 -226 212 -387 168z"/>
<path d="M8200 3835 l0 -415 110 0 110 0 0 415 0 415 -110 0 -110 0 0 -415z"/>
</g>
</svg>
