<?xml version="1.0" standalone="no"?>
<!DOCTYPE svg PUBLIC "-//W3C//DTD SVG 20010904//EN"
 "http://www.w3.org/TR/2001/REC-SVG-20010904/DTD/svg10.dtd">
<svg version="1.0" xmlns="http://www.w3.org/2000/svg"
 width="1248.000000pt" height="1248.000000pt" viewBox="0 0 1248.000000 1248.000000"
 preserveAspectRatio="xMidYMid meet">

<g transform="translate(0.000000,1248.000000) scale(0.100000,-0.100000)"
fill="#000000" stroke="none">
<path d="M8966 9789 c-202 -98 -371 -181 -374 -184 -3 -3 84 -5 193 -5 187 0
200 -1 221 -21 15 -14 36 -69 65 -170 24 -82 46 -149 49 -149 5 0 222 702 218
705 -2 1 -169 -78 -372 -176z"/>
<path d="M3871 9541 l-63 -6 359 -415 c380 -440 866 -1001 1270 -1467 135
-155 244 -284 244 -288 0 -8 -858 -924 -1476 -1575 -340 -358 -358 -377 -353
-389 4 -11 107 72 623 498 349 289 984 800 1324 1066 489 383 739 585 1151
929 601 503 804 683 1080 960 l175 176 -469 -2 -470 -3 -125 -146 c-70 -80
-220 -254 -334 -387 -115 -133 -212 -242 -216 -242 -4 0 -266 290 -582 644
l-574 645 -715 1 c-393 0 -731 2 -750 4 -19 2 -64 1 -99 -3z"/>
<path d="M8300 8887 c-641 -638 -1128 -1120 -1660 -1642 -823 -808 -1712
-1566 -2129 -1815 l-85 -50 595 0 594 1 101 117 c166 193 349 412 573 687 117
143 216 260 220 260 9 0 389 -431 700 -793 l233 -272 810 0 c645 0 808 3 802
13 -5 6 -157 188 -339 402 -182 215 -471 555 -641 756 -170 201 -411 485 -537
632 l-227 267 227 278 c126 153 338 413 473 578 310 377 548 677 762 962 165
219 193 260 186 267 -2 2 -298 -289 -658 -648z"/>
<path d="M2092 4501 c29 -33 133 -146 232 -251 l179 -191 -19 -22 c-11 -12
-109 -118 -218 -237 -110 -118 -209 -225 -220 -237 l-19 -23 109 0 109 1 184
200 c101 110 187 198 190 197 4 -2 89 -92 190 -200 l183 -198 110 0 110 0 -80
88 c-44 48 -152 164 -240 257 l-160 170 37 42 c20 23 125 137 235 253 l198
211 -113 -3 -113 -3 -172 -185 c-95 -101 -176 -186 -181 -187 -5 -2 -89 82
-187 187 l-177 190 -111 0 -110 0 54 -59z"/>
<path d="M4030 4050 l0 -510 80 0 80 0 2 396 3 395 300 -323 c165 -178 331
-356 369 -395 l69 -73 74 0 73 0 0 510 0 510 -75 0 -75 0 0 -397 -1 -398 -42
47 c-23 25 -188 204 -367 397 l-325 351 -82 0 -83 0 0 -510z"/>
<path d="M6339 4397 c-291 -547 -449 -846 -449 -851 0 -3 37 -6 83 -6 l82 0
180 341 c99 188 199 375 221 417 l41 75 36 -64 c19 -35 113 -213 209 -395 95
-182 180 -341 188 -353 14 -20 22 -22 97 -19 l82 3 -57 111 c-31 61 -151 289
-267 507 l-210 396 -75 0 -75 1 -86 -163z"/>
<path d="M7779 4328 c66 -128 185 -357 265 -508 l145 -275 77 0 77 0 144 275
c79 151 198 380 265 508 l120 232 -84 0 -83 0 -64 -122 c-36 -68 -126 -240
-201 -383 -76 -143 -145 -275 -155 -294 l-17 -34 -154 294 c-85 162 -182 349
-216 416 l-63 123 -88 0 -88 0 120 -232z"/>
<path d="M9735 4113 c-131 -246 -253 -476 -271 -511 l-34 -63 86 3 87 3 67
125 c36 69 133 251 214 405 81 154 151 284 155 288 5 5 107 -179 227 -407
l219 -416 88 0 88 0 -70 133 c-39 72 -160 301 -270 507 l-199 375 -75 3 -74 3
-238 -448z"/>
<path d="M3050 2860 l0 -190 125 0 125 0 0 25 0 25 -100 0 -100 0 0 60 0 60
85 0 c78 0 85 2 85 20 0 17 -7 20 -47 21 -27 1 -64 2 -83 3 l-35 1 -3 58 -3
57 96 0 c95 0 95 0 95 25 l0 25 -120 0 -120 0 0 -190z"/>
<path d="M3700 2860 l0 -190 25 0 25 0 0 147 0 147 73 -99 c40 -55 88 -121
105 -147 26 -37 39 -48 60 -48 l27 0 2 190 1 190 -29 0 -30 0 3 -140 c2 -77 0
-140 -4 -140 -3 0 -50 63 -105 139 -85 121 -102 140 -125 140 l-28 1 0 -190z"/>
<path d="M4400 3025 c0 -24 3 -25 60 -25 l60 0 0 -165 0 -165 25 0 25 0 0 165
0 165 60 0 c57 0 60 1 60 25 l0 25 -145 0 -145 0 0 -25z"/>
<path d="M5080 2860 l0 -190 125 0 125 0 0 25 0 25 -100 0 -100 0 0 60 0 60
85 0 c78 0 85 2 85 20 0 17 -8 19 -82 22 l-83 3 -3 58 -3 57 96 0 c95 0 95 0
95 25 l0 25 -120 0 -120 0 0 -190z"/>
<path d="M5730 2860 l0 -190 25 0 c24 0 25 2 25 70 l0 70 44 0 c43 0 44 0 86
-70 37 -62 46 -70 72 -70 30 0 30 0 14 25 -10 14 -30 48 -46 76 l-30 50 26 11
c33 15 54 57 54 105 0 81 -53 113 -185 113 l-85 0 0 -190z m200 120 c26 -26
26 -70 0 -98 -17 -18 -32 -22 -85 -22 l-65 0 0 70 0 70 65 0 c52 0 69 -4 85
-20z"/>
<path d="M6410 2860 l0 -190 30 0 30 0 0 65 c0 61 2 65 23 66 140 3 187 35
187 126 0 91 -48 123 -185 123 l-85 0 0 -190z m200 120 c30 -30 27 -83 -7
-110 -21 -17 -38 -20 -81 -18 l-54 3 0 60 c0 33 1 66 1 73 1 8 20 12 61 12 47
0 64 -4 80 -20z"/>
<path d="M7080 2860 l0 -190 25 0 c24 0 25 2 25 70 l0 70 44 0 c44 0 44 0 85
-70 37 -62 45 -70 72 -70 l31 0 -23 38 c-13 20 -33 52 -45 71 -24 35 -23 51 1
51 27 0 55 51 55 99 0 89 -49 121 -185 121 l-85 0 0 -190z m198 120 c28 -26
28 -69 2 -98 -17 -18 -32 -22 -85 -22 l-65 0 0 70 0 70 63 0 c50 0 68 -4 85
-20z"/>
<path d="M7760 2861 l0 -191 28 0 27 0 -2 187 -3 188 -25 3 -25 3 0 -190z"/>
<path d="M8273 3030 c-35 -21 -46 -48 -41 -101 4 -40 43 -70 122 -93 29 -9 61
-25 71 -36 18 -19 18 -24 5 -47 -27 -47 -116 -49 -165 -3 l-22 21 -16 -24
c-14 -22 -13 -24 21 -48 30 -20 47 -24 109 -24 65 0 75 3 99 26 16 16 28 41
31 67 5 37 2 45 -24 70 -17 15 -57 36 -89 46 -89 28 -116 62 -78 100 22 23 95
21 126 -4 25 -19 26 -19 42 -1 15 16 15 19 -1 34 -46 41 -138 49 -190 17z"/>
<path d="M8890 2860 l0 -190 125 0 125 0 0 25 0 25 -100 0 -101 0 3 58 3 57
83 3 c79 3 83 4 80 25 -3 21 -8 22 -83 22 l-80 0 0 55 0 55 93 3 c90 3 92 3
92 27 l0 25 -120 0 -120 0 0 -190z"/>
<path d="M9582 3030 c-56 -34 -65 -99 -20 -147 12 -12 51 -32 87 -44 82 -27
91 -34 91 -71 0 -24 -6 -32 -35 -44 -40 -16 -74 -11 -123 19 -30 18 -35 18
-49 4 -49 -49 130 -102 208 -61 43 22 64 75 48 121 -9 28 -21 40 -63 59 -28
13 -57 24 -64 24 -7 0 -26 7 -42 15 -36 19 -42 68 -11 85 32 17 96 12 123 -10
25 -19 26 -19 42 -1 15 16 15 19 -1 34 -46 41 -138 49 -191 17z"/>
</g>
</svg>
